<svg width="24" height="23" viewBox="0 0 24 23" fill="none" xmlns="http://www.w3.org/2000/svg">
<path fill-rule="evenodd" clip-rule="evenodd" d="M22 22.2069V19.7304C22.5273 19.4223 22.8363 18.8472 22.8 18.2414C22.8 17.3654 22.2629 16.6552 21.6 16.6552C20.9371 16.6552 20.4 17.3654 20.4 18.2414C20.3637 18.8472 20.6727 19.4223 21.2 19.7304V22.2069H18.4V10.1589L16 8.96927V11.1034H17.2V11.8966H16V13.4828H17.2V14.2759H16V15.8621H17.2V16.6552H16V18.2414H17.2V19.0345H16V20.6207H17.2V21.4138H16V22.2069H15.2V6.24724L10.4 4.88796V6.34483H13.2V7.13793H10.4V8.72414H13.2V9.51724H10.4V11.1034H13.2V11.8966H10.4V13.4828H13.2V14.2759H10.4V15.8621H13.2V16.6552H10.4V18.2414H13.2V19.0345H10.4V20.6207H13.2V21.4138H10.4V22.2069H9.6V0H2.4V1.58621H6V2.37931H2.4V3.96552H6V4.75862H2.4V6.34483H6V7.13793H2.4V8.72414H6V9.51724H2.4V11.1034H6V11.8966H2.4V13.4828H6V14.2759H2.4V15.8621H6V16.6552H2.4V18.2414H6V19.0345H2.4V20.6207H6V21.4138H2.4V22.2069H0V23H24V22.2069H22Z" fill="#EF6039"/>
</svg>
